<svg width="600" height="560" viewBox="0 0 600 560" fill="none" xmlns="http://www.w3.org/2000/svg">
<path d="M0 36C0 29.3726 5.37258 24 12 24H564C570.627 24 576 29.3726 576 36V524C576 530.627 570.627 536 564 536H12C5.37257 536 0 530.627 0 524V36Z" fill="white"/>
<rect y="178" width="576" height="1" fill="#DFE7EF"/>
<rect x="75" y="536" width="512" height="1.00002" transform="rotate(-90 75 536)" fill="#DFE7EF"/>
<rect y="394" width="576" height="1" fill="#DFE7EF"/>
<rect x="508" y="536" width="512" height="1.00002" transform="rotate(-90 508 536)" fill="#DFE7EF"/>
<g filter="url(#filter0_d_1346_183809)">
<rect x="464" y="244" width="84" height="84" rx="18" fill="white"/>
<rect x="463.565" y="243.565" width="84.8696" height="84.8696" rx="18.4348" stroke="#CBD5E0" stroke-width="0.869565"/>
<rect x="470.5" y="250.5" width="71" height="71" rx="13.5" fill="white"/>
<rect x="470.5" y="250.5" width="71" height="71" rx="13.5" stroke="#CBD5E0"/>
<path d="M505.16 280.82C505.16 283.2 503.2 285.16 500.82 285.16C498.44 285.16 496.48 283.2 496.48 280.82C496.48 278.44 498.44 276.48 500.82 276.48C503.2 276.48 505.16 278.44 505.16 280.82ZM500.82 286.84C498.44 286.84 496.48 288.8 496.48 291.18C496.48 293.56 498.44 295.52 500.82 295.52C503.2 295.52 505.16 293.56 505.16 291.18C505.16 288.8 503.2 286.84 500.82 286.84ZM527 286C527 297.62 517.62 307 506 307C494.38 307 485 297.62 485 286C485 274.38 494.38 265 506 265C517.62 265 527 274.38 527 286ZM521.4 286C521.4 277.46 514.54 270.6 506 270.6C497.46 270.6 490.6 277.46 490.6 286C490.6 294.54 497.46 301.4 506 301.4C514.54 301.4 521.4 294.54 521.4 286ZM511.18 286.84C508.8 286.84 506.84 288.8 506.84 291.18C506.84 293.56 508.8 295.52 511.18 295.52C513.56 295.52 515.52 293.56 515.52 291.18C515.52 288.8 513.56 286.84 511.18 286.84ZM511.18 276.48C508.8 276.48 506.84 278.44 506.84 280.82C506.84 283.2 508.8 285.16 511.18 285.16C513.56 285.16 515.52 283.2 515.52 280.82C515.52 278.44 513.56 276.48 511.18 276.48Z" fill="#E92D43"/>
</g>
<g filter="url(#filter1_d_1346_183809)">
<rect x="34" y="244" width="84" height="84" rx="18" fill="white"/>
<rect x="33.5652" y="243.565" width="84.8696" height="84.8696" rx="18.4348" stroke="#CBD5E0" stroke-width="0.869565"/>
<rect x="40.5" y="250.5" width="71" height="71" rx="13.5" fill="white"/>
<rect x="40.5" y="250.5" width="71" height="71" rx="13.5" stroke="#CBD5E0"/>
<path d="M81.3322 286.01C81.3324 287.548 81.0548 289.073 80.5128 290.512C79.0734 291.054 77.548 291.332 76.0099 291.332H75.9912C74.4531 291.332 72.9277 291.054 71.4884 290.512C70.9455 289.073 70.6674 287.548 70.6675 286.009V285.989C70.6675 284.405 70.9583 282.887 71.485 281.487C72.9246 280.944 74.4506 280.666 75.9892 280.667H76.0066C77.592 280.667 79.109 280.958 80.5094 281.487C81.052 282.926 81.3297 284.451 81.3289 285.989V286.009H81.3309L81.3322 286.01ZM97.0292 282.445H84.5821L93.3827 273.644C91.9988 271.701 90.2998 270.002 88.3559 268.619L79.5539 277.42V264.972C78.3835 264.775 77.1988 264.676 76.0119 264.675H75.9892C74.7817 264.675 73.5991 264.778 72.4465 264.972V277.42L63.6426 268.618C62.673 269.308 61.763 270.078 60.9221 270.92L60.9181 270.924C60.0772 271.766 59.3078 272.676 58.6178 273.645L67.4217 282.445H54.9719C54.9719 282.445 54.6758 284.784 54.6758 285.993V286.007C54.6758 287.216 54.7783 288.401 54.9726 289.554H67.4224L58.6171 298.354C60.002 300.297 61.7011 301.996 63.6446 303.381L72.4472 294.58V307.029C73.5984 307.222 74.779 307.324 75.9852 307.325H76.0153C77.2008 307.324 78.3841 307.225 79.5532 307.029V294.58L88.3565 303.383C89.3262 302.692 90.2369 301.922 91.079 301.081H91.081C91.9215 300.238 92.6907 299.328 93.3807 298.358L84.5801 289.555H97.0298C97.2228 288.402 97.3247 287.222 97.3247 286.016V285.985C97.3247 284.799 97.2255 283.616 97.0298 282.447L97.0292 282.445Z" fill="#F74D00"/>
</g>
<g filter="url(#filter2_d_1346_183809)">
<rect x="34" y="352" width="84" height="84" rx="18" fill="white"/>
<rect x="33.5652" y="351.565" width="84.8696" height="84.8696" rx="18.4348" stroke="#CBD5E0" stroke-width="0.869565"/>
<rect x="40" y="358" width="72" height="72" rx="14" fill="#6D00CC"/>
<path d="M87.4707 381.325C87.3507 381.325 87.2319 381.348 87.1211 381.392C87.0102 381.437 86.9095 381.502 86.8247 381.584C86.7399 381.666 86.6727 381.763 86.6268 381.87C86.581 381.977 86.5574 382.092 86.5575 382.208V405.793C86.5574 406.027 86.6536 406.251 86.8248 406.417C86.9961 406.582 87.2284 406.675 87.4707 406.675H94.0868C94.2068 406.675 94.3256 406.652 94.4364 406.608C94.5473 406.564 94.648 406.499 94.7328 406.417C94.8176 406.335 94.8848 406.237 94.9307 406.13C94.9765 406.023 95.0001 405.909 95 405.793V382.208C95.0002 382.092 94.9766 381.977 94.9308 381.87C94.885 381.763 94.8177 381.666 94.7329 381.584C94.6481 381.502 94.5474 381.437 94.4365 381.392C94.3256 381.348 94.2068 381.325 94.0868 381.325H87.4707ZM68.0639 381.637L57.0974 402.709C56.9885 402.918 56.9701 403.16 57.0462 403.382C57.1223 403.604 57.2866 403.788 57.503 403.893L63.414 406.762C63.5212 406.814 63.6381 406.846 63.7578 406.854C63.8775 406.863 63.9978 406.848 64.1118 406.812C64.2257 406.775 64.3311 406.717 64.4219 406.642C64.5127 406.566 64.5871 406.473 64.6408 406.37L75.6078 385.298C75.6618 385.194 75.6941 385.082 75.7029 384.966C75.7116 384.85 75.6967 384.734 75.6589 384.624C75.6212 384.514 75.5613 384.412 75.4827 384.325C75.4042 384.237 75.3085 384.165 75.2011 384.113L69.2906 381.244C69.0739 381.14 68.8231 381.122 68.5931 381.196C68.3631 381.269 68.1727 381.428 68.0637 381.637M77.2887 381.712L72.5961 404.682C72.5493 404.911 72.5982 405.149 72.7324 405.343C72.8665 405.537 73.0749 405.672 73.3119 405.718L79.7965 406.983C79.9145 407.006 80.0361 407.006 80.1542 406.983C80.2723 406.961 80.3847 406.916 80.4848 406.851C80.5849 406.787 80.6709 406.704 80.7377 406.607C80.8045 406.51 80.8509 406.402 80.8742 406.288L85.567 383.318C85.6139 383.089 85.5648 382.852 85.4305 382.657C85.2962 382.463 85.0877 382.328 84.8507 382.282L78.3658 381.018C78.3061 381.006 78.2454 381 78.1845 381C77.973 381 77.7681 381.071 77.6048 381.201C77.4415 381.331 77.3298 381.511 77.2888 381.712" fill="white"/>
</g>
<g filter="url(#filter3_d_1346_183809)">
<rect x="142" y="352" width="84" height="84" rx="18" fill="white"/>
<rect x="141.565" y="351.565" width="84.8696" height="84.8696" rx="18.4348" stroke="#CBD5E0" stroke-width="0.869565"/>
<rect x="148.5" y="358.5" width="71" height="71" rx="13.5" fill="white"/>
<rect x="148.5" y="358.5" width="71" height="71" rx="13.5" stroke="#CBD5E0"/>
<g clip-path="url(#clip0_1346_183809)">
<path d="M194 384L185 383L174 384L173 394L174 404L184 405.25L194 404L195 393.75L194 384Z" fill="white"/>
<path d="M178.102 399.515C177.355 399.01 176.837 398.273 176.555 397.297L178.29 396.582C178.447 397.182 178.722 397.647 179.115 397.977C179.505 398.307 179.98 398.47 180.535 398.47C181.102 398.47 181.59 398.297 181.997 397.952C182.405 397.607 182.61 397.167 182.61 396.635C182.61 396.09 182.395 395.645 181.965 395.3C181.535 394.955 180.995 394.782 180.35 394.782H179.347V393.065H180.247C180.802 393.065 181.27 392.915 181.65 392.615C182.03 392.315 182.22 391.905 182.22 391.383C182.22 390.918 182.05 390.547 181.71 390.27C181.37 389.993 180.94 389.853 180.417 389.853C179.907 389.853 179.502 389.988 179.202 390.26C178.902 390.533 178.685 390.868 178.547 391.263L176.83 390.548C177.057 389.903 177.475 389.333 178.087 388.84C178.7 388.348 179.482 388.1 180.432 388.1C181.135 388.1 181.767 388.235 182.327 388.508C182.887 388.78 183.327 389.158 183.645 389.638C183.962 390.12 184.12 390.66 184.12 391.26C184.12 391.873 183.972 392.39 183.677 392.815C183.382 393.24 183.02 393.565 182.59 393.792V393.895C183.157 394.132 183.62 394.495 183.985 394.982C184.347 395.47 184.53 396.053 184.53 396.733C184.53 397.413 184.357 398.02 184.012 398.553C183.667 399.085 183.189 399.505 182.585 399.81C181.977 400.115 181.295 400.27 180.537 400.27C179.66 400.272 178.85 400.02 178.102 399.515Z" fill="#1A73E8"/>
<path d="M188.75 390.905L186.855 392.283L185.902 390.838L189.32 388.373H190.63V400H188.75V390.905Z" fill="#1A73E8"/>
<path d="M194 413L203 404L198.5 402L194 404L192 408.5L194 413Z" fill="#EA4335"/>
<path d="M172 408.5L174 413H194V404H174L172 408.5Z" fill="#34A853"/>
<path d="M168 375C166.343 375 165 376.343 165 378V404L169.5 406L174 404V384H194L196 379.5L194 375H168Z" fill="#4285F4"/>
<path d="M165 404V410C165 411.658 166.343 413 168 413H174V404H165Z" fill="#188038"/>
<path d="M194 384V404H203V384L198.5 382L194 384Z" fill="#FBBC04"/>
<path d="M203 384V378C203 376.342 201.657 375 200 375H194V384H203Z" fill="#1967D2"/>
</g>
</g>
<g filter="url(#filter4_d_1346_183809)">
<rect x="250" y="352" width="84" height="84" rx="18" fill="white"/>
<rect x="249.565" y="351.565" width="84.8696" height="84.8696" rx="18.4348" stroke="#CBD5E0" stroke-width="0.869565"/>
<rect x="256.5" y="358.5" width="71" height="71" rx="13.5" fill="white"/>
<rect x="256.5" y="358.5" width="71" height="71" rx="13.5" stroke="#CBD5E0"/>
<path d="M298.911 399.64C297.704 400.711 296.198 402.043 293.466 402.043H291.833C289.856 402.043 288.058 401.324 286.771 400.022C285.514 398.749 284.822 397.008 284.822 395.117V392.882C284.822 390.991 285.514 389.25 286.771 387.977C288.058 386.675 289.856 385.957 291.833 385.957H293.466C296.201 385.957 297.704 387.288 298.911 388.359C300.164 389.463 301.244 390.427 304.126 390.427C304.565 390.427 305.004 390.392 305.438 390.322L305.428 390.297C305.256 389.868 305.053 389.452 304.822 389.052L302.896 385.715C301.129 382.654 297.862 380.768 294.327 380.769H290.474C286.939 380.768 283.672 382.654 281.905 385.715L279.979 389.052C278.212 392.114 278.212 395.885 279.979 398.947L281.905 402.283C283.672 405.345 286.939 407.23 290.474 407.23H294.327C297.862 407.23 301.129 405.345 302.896 402.283L304.822 398.952C305.053 398.552 305.256 398.136 305.428 397.707L305.438 397.683C305.004 397.611 304.566 397.574 304.126 397.573C301.244 397.573 300.164 398.532 298.911 399.641" fill="#007AFF"/>
<path d="M293.467 387.982H291.834C288.825 387.982 286.848 390.131 286.848 392.882V395.117C286.848 397.867 288.825 400.016 291.834 400.016H293.467C297.851 400.016 297.507 395.546 304.127 395.546C304.754 395.546 305.38 395.603 305.997 395.718C306.197 394.581 306.197 393.418 305.997 392.28C305.38 392.395 304.754 392.453 304.127 392.453C297.505 392.453 297.851 387.982 293.467 387.982Z" fill="#007AFF"/>
<path d="M309.8 397.353C308.673 396.527 307.373 395.968 305.998 395.718C305.998 395.73 305.998 395.74 305.998 395.751C305.88 396.41 305.695 397.055 305.446 397.677C306.582 397.853 307.659 398.297 308.589 398.972C308.589 398.981 308.584 398.992 308.581 399.002C306.106 407.013 298.147 412.011 289.856 410.76C281.566 409.509 275.436 402.384 275.436 394C275.436 385.616 281.566 378.491 289.856 377.24C298.147 375.989 306.106 380.987 308.581 388.998C308.581 389.008 308.586 389.019 308.589 389.028C307.659 389.703 306.582 390.147 305.446 390.322C305.694 390.944 305.879 391.59 305.998 392.25C305.997 392.26 305.997 392.271 305.998 392.281C307.373 392.031 308.673 391.473 309.8 390.647C310.884 389.845 310.674 388.939 310.51 388.402C307.741 379.42 298.819 373.813 289.524 375.214C280.23 376.614 273.356 384.601 273.356 394C273.356 403.4 280.23 411.386 289.524 412.786C298.819 414.187 307.741 408.58 310.51 399.598C310.674 399.061 310.884 398.155 309.8 397.353Z" fill="#007AFF"/>
<path d="M305.44 390.321C305.006 390.393 304.567 390.43 304.127 390.431C301.246 390.431 300.165 389.472 298.913 388.363C297.706 387.292 296.203 385.96 293.468 385.96H291.834C289.856 385.96 288.059 386.678 286.772 387.981C285.515 389.253 284.823 390.995 284.823 392.886V395.121C284.823 397.012 285.515 398.753 286.772 400.026C288.059 401.328 289.856 402.046 291.834 402.046H293.468C296.203 402.046 297.706 400.715 298.913 399.644C300.165 398.54 301.246 397.576 304.127 397.576C304.567 397.576 305.006 397.611 305.44 397.68C305.689 397.059 305.874 396.414 305.992 395.754C305.992 395.743 305.992 395.732 305.992 395.721C305.375 395.607 304.749 395.55 304.122 395.55C297.499 395.55 297.846 400.021 293.462 400.021H291.829C288.82 400.021 286.843 397.871 286.843 395.121V392.881C286.843 390.131 288.82 387.982 291.829 387.982H293.462C297.846 387.982 297.502 392.451 304.122 392.451C304.749 392.452 305.375 392.395 305.992 392.28C305.992 392.27 305.992 392.26 305.992 392.249C305.873 391.589 305.688 390.943 305.44 390.321Z" fill="#0AE8F0"/>
<path d="M305.44 390.321C305.006 390.393 304.567 390.43 304.127 390.431C301.246 390.431 300.165 389.472 298.913 388.363C297.706 387.292 296.203 385.96 293.468 385.96H291.834C289.856 385.96 288.059 386.678 286.772 387.981C285.515 389.253 284.823 390.995 284.823 392.886V395.121C284.823 397.012 285.515 398.753 286.772 400.026C288.059 401.328 289.856 402.046 291.834 402.046H293.468C296.203 402.046 297.706 400.715 298.913 399.644C300.165 398.54 301.246 397.576 304.127 397.576C304.567 397.576 305.006 397.611 305.44 397.68C305.689 397.059 305.874 396.414 305.992 395.754C305.992 395.743 305.992 395.732 305.992 395.721C305.375 395.607 304.749 395.55 304.122 395.55C297.499 395.55 297.846 400.021 293.462 400.021H291.829C288.82 400.021 286.843 397.871 286.843 395.121V392.881C286.843 390.131 288.82 387.982 291.829 387.982H293.462C297.846 387.982 297.502 392.451 304.122 392.451C304.749 392.452 305.375 392.395 305.992 392.28C305.992 392.27 305.992 392.26 305.992 392.249C305.873 391.589 305.688 390.943 305.44 390.321Z" fill="#0AE8F0"/>
</g>
<g filter="url(#filter5_d_1346_183809)">
<rect x="358" y="352" width="84" height="84" rx="18" fill="white"/>
<rect x="357.565" y="351.565" width="84.8696" height="84.8696" rx="18.4348" stroke="#CBD5E0" stroke-width="0.869565"/>
<rect x="364.5" y="358.5" width="71" height="71" rx="13.5" fill="white"/>
<rect x="364.5" y="358.5" width="71" height="71" rx="13.5" stroke="#CBD5E0"/>
<path d="M400 397.001C401.656 397.001 402.998 395.658 402.998 394.002C402.998 392.346 401.656 391.004 400 391.004C398.344 391.004 397.001 392.346 397.001 394.002C397.001 395.658 398.344 397.001 400 397.001Z" fill="#BB2B2B"/>
<path d="M414.248 396.252C413.006 396.252 411.998 395.244 411.998 394.002C411.998 387.374 406.624 382.004 400 382.004C393.376 382.004 388.002 387.378 388.002 394.002C388.002 400.627 393.376 406.001 400 406.001C404.578 406.001 408.558 403.439 410.579 399.666C413.192 401.362 416.727 401.064 419.021 398.77C420.34 397.451 420.998 395.724 420.998 393.998C420.998 382.402 411.596 373 400 373C388.404 373 379.002 382.406 379.002 394.002C379.002 405.598 388.404 415 400 415C405.798 415 411.051 412.651 414.85 408.848L411.669 405.667C408.684 408.653 404.56 410.5 400.004 410.5C390.892 410.5 383.506 403.115 383.506 394.002C383.506 384.89 390.888 377.504 400 377.504C409.112 377.504 416.498 384.89 416.498 394.002C416.498 395.244 415.49 396.252 414.248 396.252ZM400 401.501C395.859 401.501 392.502 398.143 392.502 394.002C392.502 389.862 395.859 386.504 400 386.504C404.141 386.504 407.498 389.862 407.498 394.002C407.498 398.143 404.141 401.501 400 401.501Z" fill="#BB2B2B"/>
</g>
<g filter="url(#filter6_d_1346_183809)">
<rect x="466" y="352" width="84" height="84" rx="18" fill="white"/>
<rect x="465.565" y="351.565" width="84.8696" height="84.8696" rx="18.4348" stroke="#CBD5E0" stroke-width="0.869565"/>
<rect x="472" y="358" width="72" height="72" rx="14" fill="#FFD260"/>
<g clip-path="url(#clip1_1346_183809)">
<path d="M518.394 392.8C518.713 392.762 519.02 392.76 519.299 392.8C519.462 392.427 519.49 391.784 519.343 391.083C519.125 390.041 518.831 389.412 518.223 389.509C517.615 389.608 517.592 390.361 517.809 391.402C517.932 391.988 518.149 392.489 518.392 392.799L518.394 392.8Z" fill="#101215"/>
<path d="M513.173 393.624C513.608 393.815 513.876 393.942 513.98 393.831C514.047 393.763 514.027 393.63 513.923 393.461C513.709 393.111 513.267 392.755 512.798 392.556C511.839 392.142 510.695 392.279 509.813 392.914C509.522 393.126 509.245 393.423 509.286 393.602C509.299 393.661 509.343 393.704 509.445 393.717C509.684 393.744 510.525 393.321 511.491 393.262C512.174 393.22 512.738 393.433 513.173 393.625V393.624Z" fill="#101215"/>
<path d="M512.294 394.123C511.727 394.212 511.415 394.399 511.214 394.573C511.043 394.722 510.936 394.888 510.938 395.005C510.938 395.061 510.963 395.092 510.982 395.109C511.007 395.133 511.038 395.144 511.075 395.144C511.203 395.144 511.49 395.029 511.49 395.029C512.279 394.746 512.8 394.781 513.315 394.84C513.6 394.871 513.736 394.89 513.798 394.791C513.816 394.763 513.838 394.702 513.781 394.61C513.649 394.394 513.076 394.031 512.294 394.123Z" fill="#101215"/>
<path d="M516.632 395.958C517.017 396.147 517.44 396.073 517.579 395.792C517.718 395.511 517.517 395.13 517.132 394.941C516.747 394.752 516.323 394.826 516.184 395.107C516.047 395.388 516.246 395.768 516.632 395.958Z" fill="#101215"/>
<path d="M519.107 393.795C518.794 393.79 518.535 394.133 518.528 394.562C518.521 394.99 518.769 395.342 519.08 395.349C519.394 395.354 519.653 395.01 519.66 394.582C519.666 394.153 519.419 393.802 519.107 393.795Z" fill="#101215"/>
<path d="M497.767 401.489C497.68 401.509 497.583 401.533 497.476 401.531C497.246 401.526 497.051 401.429 496.942 401.26C496.799 401.041 496.808 400.714 496.965 400.341C496.987 400.29 497.012 400.235 497.039 400.173C497.29 399.611 497.71 398.668 497.238 397.771C496.883 397.094 496.305 396.674 495.609 396.585C494.941 396.5 494.253 396.748 493.814 397.232C493.123 397.995 493.014 399.033 493.148 399.401C493.196 399.535 493.274 399.574 493.329 399.581C493.446 399.596 493.62 399.51 493.729 399.217C493.737 399.196 493.747 399.164 493.761 399.122C493.809 398.966 493.9 398.678 494.049 398.447C494.228 398.168 494.506 397.975 494.832 397.906C495.165 397.834 495.505 397.898 495.79 398.086C496.274 398.402 496.461 398.996 496.254 399.564C496.146 399.857 495.972 400.418 496.011 400.878C496.088 401.811 496.662 402.184 497.176 402.224C497.677 402.243 498.027 401.961 498.115 401.757C498.167 401.635 498.124 401.561 498.095 401.529C498.018 401.432 497.889 401.462 497.765 401.491L497.767 401.489Z" fill="#101215"/>
<path d="M526.997 399.825C526.978 399.758 526.853 399.304 526.684 398.757C526.513 398.209 526.337 397.824 526.337 397.824C527.022 396.799 527.034 395.884 526.943 395.365C526.846 394.722 526.578 394.173 526.039 393.607C525.5 393.041 524.395 392.46 522.845 392.025C522.667 391.974 522.083 391.814 522.031 391.799C522.028 391.765 521.988 389.88 521.953 389.07C521.927 388.485 521.877 387.571 521.593 386.672C521.254 385.455 520.667 384.389 519.932 383.707C521.959 381.606 523.225 379.291 523.222 377.305C523.217 373.486 518.525 372.331 512.746 374.723C512.739 374.727 511.531 375.239 511.522 375.244C511.517 375.239 509.309 373.073 509.275 373.042C502.682 367.293 482.078 390.195 488.666 395.756L490.106 396.975C489.733 397.943 489.585 399.051 489.706 400.243C489.86 401.774 490.65 403.242 491.929 404.375C493.145 405.452 494.742 406.133 496.292 406.131C498.855 412.038 504.713 415.663 511.581 415.867C518.947 416.086 525.132 412.629 527.722 406.419C527.891 405.984 528.611 404.02 528.611 402.287C528.611 400.555 527.626 399.823 526.999 399.823L526.997 399.825ZM496.856 404.474C496.632 404.513 496.404 404.528 496.173 404.523C493.948 404.462 491.544 402.46 491.306 400.084C491.042 397.459 492.384 395.438 494.76 394.959C495.045 394.903 495.388 394.869 495.758 394.889C497.089 394.963 499.049 395.984 499.498 398.884C499.895 401.452 499.265 404.065 496.858 404.477L496.856 404.474ZM494.372 393.387C492.893 393.675 491.589 394.512 490.792 395.671C490.315 395.274 489.428 394.504 489.272 394.204C488 391.789 490.66 387.091 492.52 384.439C497.114 377.881 504.31 372.92 507.641 373.819C508.182 373.973 509.977 376.053 509.977 376.053C509.977 376.053 506.647 377.899 503.56 380.476C499.399 383.679 496.257 388.335 494.373 393.387H494.372ZM502.857 384.412C504.489 382.525 506.5 380.884 508.301 379.962C508.363 379.93 508.43 379.997 508.395 380.059C508.253 380.319 507.976 380.873 507.889 381.293C507.876 381.358 507.948 381.408 508.003 381.37C509.123 380.607 511.074 379.788 512.783 379.682C512.857 379.677 512.892 379.773 512.833 379.816C512.574 380.016 512.289 380.292 512.081 380.571C512.046 380.618 512.08 380.687 512.138 380.687C513.339 380.695 515.031 381.115 516.135 381.735C516.21 381.777 516.156 381.921 516.073 381.902C514.404 381.519 511.671 381.229 508.833 381.922C506.3 382.54 504.367 383.495 502.955 384.521C502.883 384.573 502.798 384.479 502.857 384.412ZM527.072 402.877C526.752 404.816 525.929 406.388 524.544 407.836C523.702 408.743 522.677 409.532 521.507 410.106C520.886 410.432 520.223 410.715 519.525 410.943C514.305 412.647 508.962 410.774 507.241 406.749C507.104 406.446 506.987 406.13 506.896 405.798C506.163 403.146 506.786 399.964 508.733 397.961C508.854 397.834 508.976 397.683 508.976 397.494C508.976 397.337 508.875 397.169 508.788 397.051C508.107 396.063 505.746 394.379 506.22 391.119C506.56 388.778 508.607 387.129 510.518 387.226C510.678 387.235 510.841 387.245 511.002 387.255C511.829 387.303 512.55 387.41 513.232 387.439C514.372 387.488 515.396 387.322 516.61 386.311C517.02 385.969 517.348 385.673 517.904 385.579C517.963 385.569 518.109 385.517 518.398 385.53C518.695 385.545 518.977 385.627 519.23 385.797C520.203 386.444 520.342 388.013 520.392 389.16C520.421 389.815 520.499 391.4 520.528 391.856C520.59 392.895 520.863 393.043 521.417 393.225C521.728 393.327 522.016 393.404 522.443 393.523C523.732 393.885 524.496 394.251 524.976 394.723C525.264 395.018 525.396 395.331 525.438 395.629C525.591 396.737 524.578 398.107 521.897 399.351C518.967 400.71 515.413 401.055 512.959 400.781C512.77 400.759 512.102 400.684 512.098 400.684C510.134 400.419 509.013 402.957 510.193 404.697C510.953 405.817 513.022 406.547 515.093 406.547C519.841 406.547 523.489 404.519 524.847 402.77C524.887 402.718 524.892 402.711 524.956 402.616C525.023 402.515 524.968 402.46 524.884 402.517C523.776 403.275 518.849 406.289 513.58 405.381C513.58 405.381 512.94 405.276 512.356 405.048C511.892 404.867 510.92 404.42 510.801 403.423C515.053 404.737 517.73 403.495 517.73 403.495C517.779 403.475 517.812 403.419 517.806 403.364C517.799 403.297 517.739 403.247 517.672 403.254C517.672 403.254 514.186 403.769 510.893 402.564C511.251 401.398 512.205 401.819 513.647 401.936C516.245 402.09 518.574 401.712 520.295 401.218C521.787 400.789 523.746 399.945 525.266 398.745C525.778 399.872 525.961 401.112 525.961 401.112C525.961 401.112 526.357 401.042 526.689 401.246C527.002 401.439 527.233 401.84 527.076 402.878L527.072 402.877ZM510.992 402.698C510.992 402.698 510.992 402.698 510.992 402.699C510.992 402.699 510.992 402.698 510.992 402.696V402.698Z" fill="#101215"/>
</g>
</g>
<g filter="url(#filter7_d_1346_183809)">
<rect x="34" y="136" width="84" height="84" rx="18" fill="white"/>
<rect x="33.5652" y="135.565" width="84.8696" height="84.8696" rx="18.4348" stroke="#CBD5E0" stroke-width="0.869565"/>
<rect x="40.5" y="142.5" width="71" height="71" rx="13.5" fill="white"/>
<rect x="40.5" y="142.5" width="71" height="71" rx="13.5" stroke="#CBD5E0"/>
<path d="M92.72 178.396C92.72 177.161 92.6092 175.973 92.4033 174.833H76V181.578H85.3733C84.9617 183.748 83.7267 185.584 81.8742 186.819V191.205H87.5267C90.82 188.165 92.72 183.7 92.72 178.396Z" fill="#4285F4"/>
<path d="M76.0015 195.416C80.704 195.416 84.6465 193.865 87.5281 191.205L81.8756 186.819C80.324 187.864 78.3448 188.497 76.0015 188.497C71.4731 188.497 67.6256 185.441 66.2481 181.325H60.4531V185.821C63.319 191.506 69.1931 195.416 76.0015 195.416Z" fill="#34A853"/>
<path d="M66.2454 181.309C65.897 180.264 65.6912 179.156 65.6912 178C65.6912 176.844 65.897 175.736 66.2454 174.691V170.194H60.4504C59.2629 172.537 58.582 175.181 58.582 178C58.582 180.818 59.2629 183.462 60.4504 185.806L64.9629 182.291L66.2454 181.309Z" fill="#FBBC05"/>
<path d="M76.0015 167.518C78.5665 167.518 80.8465 168.405 82.6673 170.115L87.6548 165.128C84.6306 162.309 80.704 160.583 76.0015 160.583C69.1931 160.583 63.319 164.494 60.4531 170.194L66.2481 174.691C67.6256 170.574 71.4731 167.518 76.0015 167.518Z" fill="#EA4335"/>
</g>
<g filter="url(#filter8_d_1346_183809)">
<rect x="142" y="136" width="84" height="84" rx="18" fill="white"/>
<rect x="141.565" y="135.565" width="84.8696" height="84.8696" rx="18.4348" stroke="#CBD5E0" stroke-width="0.869565"/>
<rect x="148" y="142" width="72" height="72" rx="14" fill="#1D2127"/>
<g clip-path="url(#clip2_1346_183809)">
<path d="M159.289 172H163.422V185H159.289V172ZM182.904 172H175.819V176.136H178.771V185H182.904V176.136H185.855V172H182.904ZM194.12 172H187.036V176.136H189.988V185H194.12V176.136H197.072V172H194.12ZM205.337 172H198.253V176.136H201.205V185H205.337V176.136H208.289V172H205.337ZM174.638 176.136V172H165.193V185H169.325V181.455H172.867V177.318H169.325V176.136H174.638Z" fill="white"/>
</g>
</g>
<g filter="url(#filter9_d_1346_183809)">
<rect x="250" y="136" width="84" height="84" rx="18" fill="white"/>
<rect x="249.565" y="135.565" width="84.8696" height="84.8696" rx="18.4348" stroke="#CBD5E0" stroke-width="0.869565"/>
<rect x="256.5" y="142.5" width="71" height="71" rx="13.5" fill="white"/>
<rect x="256.5" y="142.5" width="71" height="71" rx="13.5" stroke="#CBD5E0"/>
<path d="M289.62 162.747L275.768 168.478C274.998 168.797 275.006 169.892 275.781 170.199L289.691 175.715C290.913 176.199 292.274 176.199 293.496 175.715L307.405 170.199C308.18 169.892 308.189 168.797 307.418 168.479L293.567 162.747C292.303 162.224 290.884 162.224 289.62 162.747Z" fill="#FCB400"/>
<path d="M292.824 178.727V192.506C292.824 193.161 293.485 193.61 294.094 193.369L309.594 187.353C309.766 187.284 309.915 187.165 310.019 187.011C310.124 186.858 310.179 186.676 310.179 186.49V172.711C310.179 172.055 309.519 171.606 308.909 171.848L293.41 177.864C293.237 177.933 293.089 178.052 292.985 178.205C292.88 178.359 292.824 178.541 292.824 178.727Z" fill="#18BFFF"/>
<path d="M289.209 179.437L284.609 181.658L284.142 181.884L274.432 186.537C273.817 186.834 273.031 186.385 273.031 185.701V172.768C273.031 172.521 273.158 172.307 273.328 172.147C273.398 172.077 273.477 172.018 273.563 171.97C273.795 171.831 274.126 171.794 274.408 171.905L289.132 177.739C289.88 178.036 289.939 179.085 289.209 179.437Z" fill="#F82B60"/>
<path d="M289.209 179.437L284.609 181.658L273.328 172.146C273.398 172.077 273.477 172.018 273.563 171.97C273.795 171.831 274.126 171.794 274.408 171.905L289.132 177.739C289.88 178.036 289.939 179.085 289.209 179.437Z" fill="black" fill-opacity="0.25"/>
</g>
<g filter="url(#filter10_d_1346_183809)">
<rect x="358" y="136" width="84" height="84" rx="18" fill="white"/>
<rect x="357.565" y="135.565" width="84.8696" height="84.8696" rx="18.4348" stroke="#CBD5E0" stroke-width="0.869565"/>
<rect x="364" y="142" width="72" height="72" rx="14" fill="#FF0033"/>
<path d="M420.65 169.6C420.65 169.6 420.3 166.625 418.9 165.4C417.325 163.65 415.575 163.65 414.7 163.65C408.75 163.3 400 163.3 400 163.3C400 163.3 391.25 163.3 385.3 163.65C384.425 163.825 382.675 163.825 381.1 165.4C379.875 166.625 379.35 169.6 379.35 169.6C379.35 169.6 379 172.925 379 176.425V179.575C379 182.9 379.35 186.4 379.35 186.4C379.35 186.4 379.7 189.375 381.1 190.6C382.675 192.35 384.775 192.175 385.65 192.35C388.975 192.7 400 192.7 400 192.7C400 192.7 408.75 192.7 414.7 192.175C415.575 192 417.325 192 418.9 190.425C420.125 189.2 420.65 186.225 420.65 186.225C420.65 186.225 421 182.9 421 179.4V176.25C421 172.925 420.65 169.6 420.65 169.6ZM395.625 183.425V171.7L407 177.65L395.625 183.425Z" fill="white"/>
</g>
<g filter="url(#filter11_d_1346_183809)">
<rect x="466" y="136" width="84" height="84" rx="18" fill="white"/>
<rect x="465.565" y="135.565" width="84.8696" height="84.8696" rx="18.4348" stroke="#CBD5E0" stroke-width="0.869565"/>
<rect x="472.5" y="142.5" width="71" height="71" rx="13.5" fill="white"/>
<rect x="472.5" y="142.5" width="71" height="71" rx="13.5" stroke="#CBD5E0"/>
<path fill-rule="evenodd" clip-rule="evenodd" d="M503.221 160.044C502.75 160.045 502.284 160.138 501.849 160.319C501.414 160.5 501.018 160.764 500.686 161.098C500.353 161.431 500.089 161.827 499.909 162.262C499.729 162.698 499.637 163.165 499.637 163.636C499.637 164.107 499.729 164.573 499.909 165.009C500.089 165.444 500.353 165.84 500.686 166.173C501.019 166.507 501.414 166.771 501.849 166.952C502.284 167.133 502.75 167.226 503.221 167.226H506.805V163.636C506.806 163.165 506.714 162.698 506.534 162.262C506.354 161.827 506.09 161.431 505.757 161.098C505.424 160.764 505.029 160.5 504.594 160.319C504.159 160.138 503.693 160.045 503.221 160.044ZM503.221 169.621H493.664C493.193 169.622 492.727 169.715 492.292 169.895C491.856 170.076 491.461 170.341 491.128 170.674C490.796 171.008 490.532 171.403 490.352 171.839C490.172 172.274 490.08 172.741 490.08 173.212C490.08 173.683 490.172 174.15 490.352 174.585C490.532 175.021 490.795 175.416 491.128 175.75C491.461 176.083 491.856 176.348 492.291 176.529C492.726 176.709 493.193 176.803 493.664 176.803H503.221C503.693 176.803 504.159 176.709 504.594 176.529C505.029 176.348 505.424 176.083 505.757 175.75C506.09 175.416 506.354 175.021 506.534 174.585C506.714 174.15 506.806 173.683 506.805 173.212C506.806 172.741 506.713 172.274 506.534 171.839C506.354 171.403 506.09 171.008 505.757 170.674C505.424 170.341 505.029 170.076 504.594 169.895C504.159 169.715 503.693 169.622 503.221 169.621Z" fill="#44BEDF"/>
<path fill-rule="evenodd" clip-rule="evenodd" d="M525.92 173.212C525.921 172.741 525.828 172.274 525.648 171.839C525.468 171.403 525.205 171.008 524.872 170.674C524.539 170.341 524.144 170.076 523.709 169.895C523.274 169.715 522.807 169.622 522.336 169.621C521.865 169.622 521.399 169.715 520.964 169.895C520.529 170.076 520.133 170.341 519.801 170.674C519.468 171.008 519.204 171.403 519.024 171.839C518.844 172.274 518.752 172.741 518.752 173.212V176.803H522.336C522.807 176.803 523.274 176.709 523.709 176.529C524.144 176.348 524.539 176.083 524.872 175.75C525.205 175.416 525.469 175.021 525.649 174.585C525.828 174.15 525.921 173.683 525.92 173.212ZM516.363 173.212V163.636C516.363 163.165 516.271 162.698 516.091 162.262C515.911 161.827 515.648 161.431 515.315 161.098C514.982 160.764 514.587 160.5 514.152 160.319C513.716 160.138 513.25 160.045 512.779 160.044C512.308 160.045 511.841 160.138 511.406 160.319C510.971 160.5 510.576 160.764 510.243 161.098C509.91 161.431 509.646 161.827 509.466 162.262C509.287 162.698 509.194 163.165 509.195 163.636V173.212C509.194 173.683 509.287 174.15 509.466 174.585C509.646 175.021 509.91 175.416 510.243 175.75C510.576 176.083 510.971 176.348 511.406 176.529C511.841 176.709 512.308 176.803 512.779 176.803C513.25 176.803 513.716 176.709 514.152 176.529C514.587 176.348 514.982 176.083 515.315 175.75C515.648 175.416 515.911 175.021 516.091 174.585C516.271 174.15 516.363 173.683 516.363 173.212Z" fill="#2EB67D"/>
<path fill-rule="evenodd" clip-rule="evenodd" d="M512.779 195.956C513.25 195.955 513.716 195.862 514.152 195.682C514.587 195.501 514.982 195.236 515.315 194.903C515.648 194.569 515.911 194.173 516.091 193.738C516.271 193.302 516.363 192.836 516.363 192.365C516.363 191.894 516.271 191.427 516.091 190.992C515.911 190.556 515.647 190.16 515.314 189.827C514.982 189.494 514.586 189.229 514.151 189.048C513.716 188.868 513.25 188.774 512.779 188.774H509.195V192.365C509.194 192.836 509.287 193.302 509.466 193.738C509.646 194.173 509.91 194.569 510.243 194.903C510.576 195.236 510.971 195.501 511.406 195.682C511.841 195.862 512.308 195.955 512.779 195.956ZM512.779 186.379H522.336C522.807 186.379 523.274 186.286 523.709 186.105C524.144 185.924 524.539 185.66 524.872 185.326C525.205 184.993 525.468 184.597 525.648 184.162C525.828 183.726 525.921 183.26 525.92 182.789C525.921 182.317 525.828 181.851 525.649 181.415C525.469 180.98 525.205 180.584 524.872 180.251C524.539 179.917 524.144 179.652 523.709 179.472C523.274 179.291 522.807 179.198 522.336 179.197H512.779C512.308 179.198 511.841 179.291 511.406 179.472C510.971 179.652 510.576 179.917 510.243 180.251C509.91 180.584 509.646 180.98 509.466 181.415C509.287 181.851 509.194 182.317 509.195 182.789C509.194 183.26 509.287 183.726 509.467 184.162C509.646 184.597 509.91 184.993 510.243 185.326C510.576 185.66 510.971 185.924 511.406 186.105C511.841 186.286 512.308 186.379 512.779 186.379Z" fill="#ECB22E"/>
<path fill-rule="evenodd" clip-rule="evenodd" d="M490.08 182.789C490.08 183.26 490.172 183.726 490.352 184.162C490.532 184.597 490.796 184.993 491.128 185.326C491.461 185.66 491.856 185.924 492.292 186.105C492.727 186.286 493.193 186.379 493.664 186.379C494.135 186.379 494.602 186.286 495.037 186.105C495.472 185.924 495.867 185.66 496.2 185.326C496.533 184.993 496.796 184.597 496.976 184.162C497.156 183.726 497.249 183.26 497.248 182.789V179.197H493.664C493.193 179.198 492.726 179.291 492.291 179.472C491.856 179.653 491.461 179.917 491.128 180.251C490.795 180.584 490.531 180.98 490.351 181.416C490.172 181.851 490.079 182.317 490.08 182.789ZM499.637 182.789V192.365C499.637 192.836 499.729 193.302 499.909 193.738C500.089 194.173 500.353 194.569 500.686 194.903C501.018 195.236 501.414 195.501 501.849 195.682C502.284 195.862 502.75 195.955 503.221 195.956C503.693 195.955 504.159 195.862 504.594 195.682C505.029 195.501 505.424 195.236 505.757 194.903C506.09 194.569 506.354 194.173 506.534 193.738C506.714 193.302 506.806 192.836 506.805 192.365V182.789C506.806 182.318 506.714 181.851 506.534 181.416C506.354 180.981 506.09 180.585 505.757 180.251C505.424 179.918 505.029 179.653 504.594 179.472C504.159 179.292 503.693 179.198 503.221 179.198C502.75 179.198 502.284 179.292 501.849 179.472C501.414 179.653 501.018 179.918 500.686 180.251C500.353 180.585 500.089 180.981 499.909 181.416C499.729 181.851 499.637 182.317 499.637 182.789Z" fill="#E01E5A"/>
</g>
<rect x="142.5" y="244.5" width="126" height="83" rx="23.5" fill="#F2F6FB"/>
<rect x="142.5" y="244.5" width="126" height="83" rx="23.5" stroke="#CBD5E0"/>
<g filter="url(#filter12_dd_1346_183809)">
<path d="M150 268C150 259.163 157.163 252 166 252H245C253.837 252 261 259.163 261 268V304C261 312.837 253.837 320 245 320H166C157.163 320 150 312.837 150 304V268Z" fill="#007AFF"/>
</g>
<g filter="url(#filter13_d_1346_183809)">
<rect x="169" y="268" width="36" height="36" rx="6" fill="#1A87FF"/>
<rect x="169.5" y="268.5" width="35" height="35" rx="5.5" stroke="#AFD5FF"/>
<path d="M187.344 289.33L189.009 287.665L187.832 286.488L186.167 288.153L184.847 286.832L186.512 285.167L185.334 283.99L183.669 285.655L182.563 284.55C182.407 284.394 182.195 284.306 181.974 284.306C181.754 284.306 181.542 284.394 181.386 284.55L180.137 285.798C179.302 286.632 178.79 287.736 178.692 288.912C178.593 290.088 178.916 291.26 179.601 292.221L177.253 294.569C177.174 294.646 177.11 294.738 177.067 294.839C177.023 294.941 177 295.05 176.999 295.161C176.998 295.271 177.019 295.381 177.061 295.483C177.103 295.585 177.165 295.678 177.243 295.756C177.321 295.835 177.414 295.896 177.516 295.938C177.619 295.98 177.728 296.001 177.839 296C177.949 295.999 178.059 295.976 178.16 295.933C178.262 295.889 178.354 295.826 178.43 295.746L180.778 293.398C181.739 294.084 182.912 294.406 184.088 294.308C185.265 294.209 186.368 293.697 187.202 292.862L188.451 291.613C188.607 291.457 188.694 291.245 188.694 291.024C188.694 290.803 188.607 290.592 188.451 290.436L187.344 289.33Z" fill="white"/>
<path d="M191.436 287.45C191.592 287.606 191.804 287.694 192.025 287.694C192.245 287.694 192.457 287.606 192.613 287.45L193.862 286.201C194.697 285.367 195.209 284.264 195.307 283.088C195.405 281.912 195.083 280.739 194.398 279.779L196.746 277.431C196.825 277.354 196.889 277.262 196.932 277.161C196.976 277.059 196.999 276.95 197 276.839C197.001 276.729 196.98 276.619 196.938 276.517C196.896 276.414 196.834 276.322 196.756 276.243C196.678 276.165 196.585 276.103 196.483 276.062C196.38 276.02 196.271 275.999 196.16 276C196.05 276.001 195.94 276.023 195.839 276.067C195.737 276.111 195.645 276.174 195.569 276.254L193.221 278.601C192.26 277.916 191.087 277.594 189.911 277.692C188.734 277.79 187.631 278.303 186.797 279.138L185.548 280.387C185.392 280.543 185.305 280.755 185.305 280.976C185.305 281.196 185.392 281.408 185.548 281.564L191.436 287.45Z" fill="white"/>
</g>
<path d="M217.132 290H215.444L218.517 281.273H220.469L223.545 290H221.858L219.527 283.062H219.459L217.132 290ZM217.187 286.578H221.79V287.848H217.187V286.578ZM224.695 290V281.273H227.968C228.638 281.273 229.2 281.398 229.655 281.648C230.112 281.898 230.458 282.241 230.691 282.679C230.926 283.114 231.044 283.608 231.044 284.162C231.044 284.722 230.926 285.219 230.691 285.653C230.455 286.088 230.107 286.43 229.646 286.68C229.186 286.928 228.619 287.051 227.946 287.051H225.777V285.751H227.733C228.125 285.751 228.446 285.683 228.696 285.547C228.946 285.411 229.131 285.223 229.25 284.984C229.372 284.746 229.433 284.472 229.433 284.162C229.433 283.852 229.372 283.58 229.25 283.344C229.131 283.108 228.945 282.925 228.692 282.794C228.442 282.661 228.119 282.594 227.725 282.594H226.276V290H224.695ZM233.998 281.273V290H232.417V281.273H233.998Z" fill="white"/>
<rect x="315.5" y="244.5" width="126" height="83" rx="23.5" fill="#F2F6FB"/>
<rect x="315.5" y="244.5" width="126" height="83" rx="23.5" stroke="#CBD5E0"/>
<g filter="url(#filter14_dd_1346_183809)">
<path d="M323 268C323 259.163 330.163 252 339 252H418C426.837 252 434 259.163 434 268V304C434 312.837 426.837 320 418 320H339C330.163 320 323 312.837 323 304V268Z" fill="#007AFF"/>
</g>
<g filter="url(#filter15_d_1346_183809)">
<rect x="332" y="268" width="36" height="36" rx="6" fill="#1A87FF"/>
<rect x="332.5" y="268.5" width="35" height="35" rx="5.5" stroke="#AFD5FF"/>
<g clip-path="url(#clip3_1346_183809)">
<g clip-path="url(#clip4_1346_183809)">
<path d="M349.998 298C349.677 298 349.357 297.916 349.076 297.753L346.14 296.016C345.702 295.771 345.916 295.684 346.06 295.633C346.645 295.43 346.763 295.383 347.388 295.029C347.453 294.992 347.539 295.006 347.606 295.046L349.862 296.385C349.944 296.43 350.059 296.43 350.134 296.385L358.929 291.309C359.011 291.262 359.063 291.168 359.063 291.071V280.921C359.063 280.822 359.01 280.729 358.926 280.679L350.135 275.607C350.054 275.56 349.946 275.56 349.864 275.607L341.075 280.68C340.99 280.729 340.936 280.825 340.936 280.921V291.071C340.936 291.168 340.99 291.26 341.075 291.306L343.484 292.698C344.791 293.352 345.592 292.582 345.592 291.808V281.787C345.592 281.645 345.706 281.534 345.848 281.534H346.963C347.102 281.534 347.218 281.646 347.218 281.787V291.808C347.218 293.553 346.268 294.553 344.614 294.553C344.106 294.553 343.705 294.553 342.588 294.002L340.28 292.675C339.71 292.346 339.358 291.73 339.358 291.071V280.921C339.358 280.262 339.711 279.646 340.28 279.318L349.075 274.236C349.632 273.921 350.371 273.921 350.923 274.236L359.717 279.318C360.287 279.647 360.641 280.262 360.641 280.921V291.071C360.641 291.73 360.287 292.344 359.717 292.675L350.923 297.753C350.643 297.916 350.324 298 349.998 298ZM357.099 287.993C357.099 286.093 355.815 285.587 353.112 285.23C350.381 284.869 350.103 284.682 350.103 284.043C350.103 283.515 350.338 282.81 352.361 282.81C354.168 282.81 354.834 283.199 355.108 284.417C355.132 284.532 355.237 284.616 355.355 284.616H356.496C356.567 284.616 356.634 284.585 356.682 284.535C356.73 284.481 356.756 284.412 356.749 284.339C356.572 282.241 355.178 281.263 352.361 281.263C349.853 281.263 348.357 282.321 348.357 284.096C348.357 286.021 349.845 286.553 352.252 286.791C355.132 287.073 355.355 287.494 355.355 288.06C355.355 289.043 354.566 289.462 352.713 289.462C350.386 289.462 349.874 288.878 349.702 287.72C349.682 287.596 349.576 287.505 349.449 287.505H348.312C348.171 287.505 348.058 287.617 348.058 287.758C348.058 289.24 348.864 291.006 352.713 291.006C355.501 291.007 357.099 289.91 357.099 287.993Z" fill="white"/>
</g>
</g>
</g>
<path d="M386.339 281.273V290H384.933L380.821 284.055H380.748V290H379.167V281.273H380.582L384.69 287.222H384.767V281.273H386.339ZM390.849 290.128C390.21 290.128 389.656 289.987 389.187 289.706C388.718 289.425 388.355 289.031 388.096 288.526C387.84 288.02 387.713 287.429 387.713 286.753C387.713 286.077 387.84 285.484 388.096 284.976C388.355 284.467 388.718 284.072 389.187 283.791C389.656 283.51 390.21 283.369 390.849 283.369C391.488 283.369 392.042 283.51 392.511 283.791C392.98 284.072 393.342 284.467 393.597 284.976C393.856 285.484 393.985 286.077 393.985 286.753C393.985 287.429 393.856 288.02 393.597 288.526C393.342 289.031 392.98 289.425 392.511 289.706C392.042 289.987 391.488 290.128 390.849 290.128ZM390.857 288.892C391.204 288.892 391.494 288.797 391.727 288.607C391.96 288.413 392.133 288.155 392.247 287.831C392.363 287.507 392.421 287.146 392.421 286.749C392.421 286.348 392.363 285.986 392.247 285.662C392.133 285.335 391.96 285.075 391.727 284.882C391.494 284.689 391.204 284.592 390.857 284.592C390.502 284.592 390.207 284.689 389.971 284.882C389.738 285.075 389.563 285.335 389.447 285.662C389.333 285.986 389.276 286.348 389.276 286.749C389.276 287.146 389.333 287.507 389.447 287.831C389.563 288.155 389.738 288.413 389.971 288.607C390.207 288.797 390.502 288.892 390.857 288.892ZM397.724 290.115C397.209 290.115 396.749 289.983 396.343 289.719C395.937 289.455 395.616 289.071 395.38 288.568C395.144 288.065 395.026 287.455 395.026 286.736C395.026 286.009 395.145 285.395 395.384 284.895C395.626 284.392 395.951 284.013 396.36 283.757C396.769 283.499 397.225 283.369 397.728 283.369C398.111 283.369 398.427 283.435 398.674 283.565C398.921 283.693 399.117 283.848 399.262 284.03C399.407 284.209 399.519 284.378 399.599 284.537H399.662V281.273H401.209V290H399.692V288.969H399.599C399.519 289.128 399.404 289.297 399.253 289.476C399.103 289.652 398.904 289.803 398.657 289.928C398.41 290.053 398.099 290.115 397.724 290.115ZM398.154 288.849C398.481 288.849 398.759 288.761 398.989 288.585C399.219 288.406 399.394 288.158 399.513 287.839C399.633 287.521 399.692 287.151 399.692 286.727C399.692 286.304 399.633 285.936 399.513 285.624C399.397 285.311 399.224 285.068 398.993 284.895C398.766 284.722 398.486 284.635 398.154 284.635C397.81 284.635 397.523 284.724 397.293 284.903C397.063 285.082 396.89 285.33 396.773 285.645C396.657 285.96 396.599 286.321 396.599 286.727C396.599 287.136 396.657 287.501 396.773 287.822C396.893 288.141 397.067 288.392 397.297 288.577C397.53 288.759 397.816 288.849 398.154 288.849ZM405.751 290.128C405.095 290.128 404.528 289.991 404.051 289.719C403.576 289.443 403.211 289.054 402.955 288.551C402.7 288.045 402.572 287.45 402.572 286.766C402.572 286.092 402.7 285.501 402.955 284.993C403.214 284.482 403.575 284.084 404.038 283.8C404.501 283.513 405.045 283.369 405.67 283.369C406.073 283.369 406.454 283.435 406.812 283.565C407.173 283.693 407.491 283.892 407.767 284.162C408.045 284.432 408.264 284.776 408.423 285.193C408.582 285.608 408.661 286.102 408.661 286.676V287.149H403.296V286.109H407.183C407.18 285.814 407.116 285.551 406.991 285.321C406.866 285.088 406.691 284.905 406.467 284.771C406.245 284.638 405.987 284.571 405.691 284.571C405.376 284.571 405.099 284.648 404.86 284.801C404.622 284.952 404.436 285.151 404.302 285.398C404.171 285.642 404.105 285.911 404.102 286.203V287.111C404.102 287.491 404.171 287.818 404.311 288.091C404.45 288.361 404.644 288.568 404.894 288.713C405.144 288.855 405.437 288.926 405.772 288.926C405.997 288.926 406.2 288.895 406.382 288.832C406.563 288.767 406.721 288.672 406.855 288.547C406.988 288.422 407.089 288.267 407.157 288.082L408.597 288.244C408.507 288.625 408.333 288.957 408.078 289.241C407.825 289.523 407.501 289.741 407.106 289.898C406.711 290.051 406.259 290.128 405.751 290.128ZM413.478 281.273H415.046V287.409C415.043 287.972 414.924 288.456 414.688 288.862C414.452 289.266 414.123 289.577 413.699 289.795C413.279 290.011 412.789 290.119 412.229 290.119C411.718 290.119 411.258 290.028 410.849 289.847C410.442 289.662 410.12 289.389 409.881 289.028C409.643 288.668 409.523 288.219 409.523 287.682H411.096C411.099 287.918 411.15 288.121 411.249 288.291C411.351 288.462 411.492 288.592 411.671 288.683C411.85 288.774 412.056 288.82 412.289 288.82C412.542 288.82 412.756 288.767 412.932 288.662C413.108 288.554 413.242 288.395 413.333 288.185C413.427 287.974 413.475 287.716 413.478 287.409V281.273ZM421.504 283.672C421.464 283.3 421.297 283.01 421.001 282.803C420.709 282.595 420.328 282.491 419.859 282.491C419.53 282.491 419.247 282.541 419.011 282.641C418.775 282.74 418.595 282.875 418.47 283.045C418.345 283.216 418.281 283.411 418.278 283.629C418.278 283.811 418.319 283.969 418.402 284.102C418.487 284.236 418.602 284.349 418.747 284.443C418.892 284.534 419.052 284.611 419.229 284.673C419.405 284.736 419.582 284.788 419.761 284.831L420.579 285.036C420.909 285.112 421.226 285.216 421.53 285.347C421.836 285.477 422.111 285.642 422.352 285.841C422.596 286.04 422.79 286.28 422.932 286.561C423.074 286.842 423.145 287.172 423.145 287.55C423.145 288.061 423.014 288.511 422.753 288.901C422.491 289.287 422.113 289.589 421.619 289.808C421.128 290.024 420.532 290.132 419.834 290.132C419.155 290.132 418.565 290.027 418.065 289.817C417.568 289.607 417.179 289.3 416.898 288.896C416.619 288.493 416.469 288.001 416.446 287.422H418.001C418.024 287.726 418.118 287.979 418.282 288.18C418.447 288.382 418.662 288.533 418.926 288.632C419.193 288.732 419.491 288.781 419.821 288.781C420.165 288.781 420.466 288.73 420.724 288.628C420.986 288.523 421.19 288.378 421.338 288.193C421.486 288.006 421.561 287.787 421.564 287.537C421.561 287.31 421.494 287.122 421.363 286.974C421.233 286.824 421.05 286.699 420.814 286.599C420.581 286.497 420.308 286.406 419.996 286.327L419.003 286.071C418.284 285.886 417.716 285.607 417.298 285.232C416.883 284.854 416.676 284.352 416.676 283.727C416.676 283.213 416.815 282.763 417.094 282.376C417.375 281.99 417.757 281.69 418.24 281.477C418.723 281.261 419.27 281.153 419.881 281.153C420.5 281.153 421.042 281.261 421.508 281.477C421.977 281.69 422.345 281.987 422.612 282.368C422.879 282.746 423.017 283.18 423.025 283.672H421.504Z" fill="white"/>
<path d="M285.886 293.24C284.54 293.24 283.346 292.94 282.306 292.34C281.28 291.727 280.473 290.88 279.886 289.8C279.3 288.707 279.006 287.44 279.006 286C279.006 284.573 279.3 283.32 279.886 282.24C280.473 281.147 281.28 280.293 282.306 279.68C283.346 279.067 284.54 278.76 285.886 278.76C287.26 278.76 288.466 279.067 289.506 279.68C290.546 280.293 291.353 281.147 291.926 282.24C292.5 283.32 292.786 284.573 292.786 286C292.786 287.44 292.5 288.707 291.926 289.8C291.353 290.88 290.546 291.727 289.506 292.34C288.466 292.94 287.26 293.24 285.886 293.24ZM285.906 291.08C286.8 291.08 287.58 290.88 288.246 290.48C288.913 290.067 289.426 289.48 289.786 288.72C290.146 287.96 290.326 287.053 290.326 286C290.326 284.947 290.146 284.04 289.786 283.28C289.426 282.52 288.913 281.94 288.246 281.54C287.58 281.127 286.8 280.92 285.906 280.92C285.013 280.92 284.233 281.127 283.566 281.54C282.9 281.94 282.38 282.52 282.006 283.28C281.646 284.04 281.466 284.947 281.466 286C281.466 287.053 281.646 287.96 282.006 288.72C282.38 289.48 282.9 290.067 283.566 290.48C284.233 290.88 285.013 291.08 285.906 291.08ZM293.931 293V279H298.951C300.058 279 300.971 279.193 301.691 279.58C302.425 279.953 302.965 280.46 303.311 281.1C303.671 281.727 303.851 282.44 303.851 283.24C303.851 283.987 303.678 284.68 303.331 285.32C302.985 285.96 302.445 286.473 301.711 286.86C300.978 287.247 300.038 287.44 298.891 287.44H296.331V293H293.931ZM301.231 293L298.291 286.82H300.891L303.971 293H301.231ZM296.331 285.66H298.791C299.685 285.66 300.338 285.447 300.751 285.02C301.178 284.58 301.391 284.007 301.391 283.3C301.391 282.607 301.185 282.053 300.771 281.64C300.358 281.213 299.698 281 298.791 281H296.331V285.66Z" fill="#1E242A"/>
<defs>
<filter id="filter0_d_1346_183809" x="459.652" y="241.391" width="92.6958" height="92.6958" filterUnits="userSpaceOnUse" color-interpolation-filters="sRGB">
<feFlood flood-opacity="0" result="BackgroundImageFix"/>
<feColorMatrix in="SourceAlpha" type="matrix" values="0 0 0 0 0 0 0 0 0 0 0 0 0 0 0 0 0 0 127 0" result="hardAlpha"/>
<feOffset dy="1.73913"/>
<feGaussianBlur stdDeviation="1.73913"/>
<feComposite in2="hardAlpha" operator="out"/>
<feColorMatrix type="matrix" values="0 0 0 0 0.119819 0 0 0 0 0.185806 0 0 0 0 0.317778 0 0 0 0.17 0"/>
<feBlend mode="normal" in2="BackgroundImageFix" result="effect1_dropShadow_1346_183809"/>
<feBlend mode="normal" in="SourceGraphic" in2="effect1_dropShadow_1346_183809" result="shape"/>
</filter>
<filter id="filter1_d_1346_183809" x="29.6521" y="241.391" width="92.6958" height="92.6958" filterUnits="userSpaceOnUse" color-interpolation-filters="sRGB">
<feFlood flood-opacity="0" result="BackgroundImageFix"/>
<feColorMatrix in="SourceAlpha" type="matrix" values="0 0 0 0 0 0 0 0 0 0 0 0 0 0 0 0 0 0 127 0" result="hardAlpha"/>
<feOffset dy="1.73913"/>
<feGaussianBlur stdDeviation="1.73913"/>
<feComposite in2="hardAlpha" operator="out"/>
<feColorMatrix type="matrix" values="0 0 0 0 0.119819 0 0 0 0 0.185806 0 0 0 0 0.317778 0 0 0 0.17 0"/>
<feBlend mode="normal" in2="BackgroundImageFix" result="effect1_dropShadow_1346_183809"/>
<feBlend mode="normal" in="SourceGraphic" in2="effect1_dropShadow_1346_183809" result="shape"/>
</filter>
<filter id="filter2_d_1346_183809" x="29.6521" y="349.391" width="92.6958" height="92.6958" filterUnits="userSpaceOnUse" color-interpolation-filters="sRGB">
<feFlood flood-opacity="0" result="BackgroundImageFix"/>
<feColorMatrix in="SourceAlpha" type="matrix" values="0 0 0 0 0 0 0 0 0 0 0 0 0 0 0 0 0 0 127 0" result="hardAlpha"/>
<feOffset dy="1.73913"/>
<feGaussianBlur stdDeviation="1.73913"/>
<feComposite in2="hardAlpha" operator="out"/>
<feColorMatrix type="matrix" values="0 0 0 0 0.119819 0 0 0 0 0.185806 0 0 0 0 0.317778 0 0 0 0.17 0"/>
<feBlend mode="normal" in2="BackgroundImageFix" result="effect1_dropShadow_1346_183809"/>
<feBlend mode="normal" in="SourceGraphic" in2="effect1_dropShadow_1346_183809" result="shape"/>
</filter>
<filter id="filter3_d_1346_183809" x="137.652" y="349.391" width="92.6958" height="92.6958" filterUnits="userSpaceOnUse" color-interpolation-filters="sRGB">
<feFlood flood-opacity="0" result="BackgroundImageFix"/>
<feColorMatrix in="SourceAlpha" type="matrix" values="0 0 0 0 0 0 0 0 0 0 0 0 0 0 0 0 0 0 127 0" result="hardAlpha"/>
<feOffset dy="1.73913"/>
<feGaussianBlur stdDeviation="1.73913"/>
<feComposite in2="hardAlpha" operator="out"/>
<feColorMatrix type="matrix" values="0 0 0 0 0.119819 0 0 0 0 0.185806 0 0 0 0 0.317778 0 0 0 0.17 0"/>
<feBlend mode="normal" in2="BackgroundImageFix" result="effect1_dropShadow_1346_183809"/>
<feBlend mode="normal" in="SourceGraphic" in2="effect1_dropShadow_1346_183809" result="shape"/>
</filter>
<filter id="filter4_d_1346_183809" x="245.652" y="349.391" width="92.6958" height="92.6958" filterUnits="userSpaceOnUse" color-interpolation-filters="sRGB">
<feFlood flood-opacity="0" result="BackgroundImageFix"/>
<feColorMatrix in="SourceAlpha" type="matrix" values="0 0 0 0 0 0 0 0 0 0 0 0 0 0 0 0 0 0 127 0" result="hardAlpha"/>
<feOffset dy="1.73913"/>
<feGaussianBlur stdDeviation="1.73913"/>
<feComposite in2="hardAlpha" operator="out"/>
<feColorMatrix type="matrix" values="0 0 0 0 0.119819 0 0 0 0 0.185806 0 0 0 0 0.317778 0 0 0 0.17 0"/>
<feBlend mode="normal" in2="BackgroundImageFix" result="effect1_dropShadow_1346_183809"/>
<feBlend mode="normal" in="SourceGraphic" in2="effect1_dropShadow_1346_183809" result="shape"/>
</filter>
<filter id="filter5_d_1346_183809" x="353.652" y="349.391" width="92.6958" height="92.6958" filterUnits="userSpaceOnUse" color-interpolation-filters="sRGB">
<feFlood flood-opacity="0" result="BackgroundImageFix"/>
<feColorMatrix in="SourceAlpha" type="matrix" values="0 0 0 0 0 0 0 0 0 0 0 0 0 0 0 0 0 0 127 0" result="hardAlpha"/>
<feOffset dy="1.73913"/>
<feGaussianBlur stdDeviation="1.73913"/>
<feComposite in2="hardAlpha" operator="out"/>
<feColorMatrix type="matrix" values="0 0 0 0 0.119819 0 0 0 0 0.185806 0 0 0 0 0.317778 0 0 0 0.17 0"/>
<feBlend mode="normal" in2="BackgroundImageFix" result="effect1_dropShadow_1346_183809"/>
<feBlend mode="normal" in="SourceGraphic" in2="effect1_dropShadow_1346_183809" result="shape"/>
</filter>
<filter id="filter6_d_1346_183809" x="461.652" y="349.391" width="92.6958" height="92.6958" filterUnits="userSpaceOnUse" color-interpolation-filters="sRGB">
<feFlood flood-opacity="0" result="BackgroundImageFix"/>
<feColorMatrix in="SourceAlpha" type="matrix" values="0 0 0 0 0 0 0 0 0 0 0 0 0 0 0 0 0 0 127 0" result="hardAlpha"/>
<feOffset dy="1.73913"/>
<feGaussianBlur stdDeviation="1.73913"/>
<feComposite in2="hardAlpha" operator="out"/>
<feColorMatrix type="matrix" values="0 0 0 0 0.119819 0 0 0 0 0.185806 0 0 0 0 0.317778 0 0 0 0.17 0"/>
<feBlend mode="normal" in2="BackgroundImageFix" result="effect1_dropShadow_1346_183809"/>
<feBlend mode="normal" in="SourceGraphic" in2="effect1_dropShadow_1346_183809" result="shape"/>
</filter>
<filter id="filter7_d_1346_183809" x="29.6521" y="133.391" width="92.6958" height="92.6958" filterUnits="userSpaceOnUse" color-interpolation-filters="sRGB">
<feFlood flood-opacity="0" result="BackgroundImageFix"/>
<feColorMatrix in="SourceAlpha" type="matrix" values="0 0 0 0 0 0 0 0 0 0 0 0 0 0 0 0 0 0 127 0" result="hardAlpha"/>
<feOffset dy="1.73913"/>
<feGaussianBlur stdDeviation="1.73913"/>
<feComposite in2="hardAlpha" operator="out"/>
<feColorMatrix type="matrix" values="0 0 0 0 0.119819 0 0 0 0 0.185806 0 0 0 0 0.317778 0 0 0 0.17 0"/>
<feBlend mode="normal" in2="BackgroundImageFix" result="effect1_dropShadow_1346_183809"/>
<feBlend mode="normal" in="SourceGraphic" in2="effect1_dropShadow_1346_183809" result="shape"/>
</filter>
<filter id="filter8_d_1346_183809" x="137.652" y="133.391" width="92.6958" height="92.6958" filterUnits="userSpaceOnUse" color-interpolation-filters="sRGB">
<feFlood flood-opacity="0" result="BackgroundImageFix"/>
<feColorMatrix in="SourceAlpha" type="matrix" values="0 0 0 0 0 0 0 0 0 0 0 0 0 0 0 0 0 0 127 0" result="hardAlpha"/>
<feOffset dy="1.73913"/>
<feGaussianBlur stdDeviation="1.73913"/>
<feComposite in2="hardAlpha" operator="out"/>
<feColorMatrix type="matrix" values="0 0 0 0 0.119819 0 0 0 0 0.185806 0 0 0 0 0.317778 0 0 0 0.17 0"/>
<feBlend mode="normal" in2="BackgroundImageFix" result="effect1_dropShadow_1346_183809"/>
<feBlend mode="normal" in="SourceGraphic" in2="effect1_dropShadow_1346_183809" result="shape"/>
</filter>
<filter id="filter9_d_1346_183809" x="245.652" y="133.391" width="92.6958" height="92.6958" filterUnits="userSpaceOnUse" color-interpolation-filters="sRGB">
<feFlood flood-opacity="0" result="BackgroundImageFix"/>
<feColorMatrix in="SourceAlpha" type="matrix" values="0 0 0 0 0 0 0 0 0 0 0 0 0 0 0 0 0 0 127 0" result="hardAlpha"/>
<feOffset dy="1.73913"/>
<feGaussianBlur stdDeviation="1.73913"/>
<feComposite in2="hardAlpha" operator="out"/>
<feColorMatrix type="matrix" values="0 0 0 0 0.119819 0 0 0 0 0.185806 0 0 0 0 0.317778 0 0 0 0.17 0"/>
<feBlend mode="normal" in2="BackgroundImageFix" result="effect1_dropShadow_1346_183809"/>
<feBlend mode="normal" in="SourceGraphic" in2="effect1_dropShadow_1346_183809" result="shape"/>
</filter>
<filter id="filter10_d_1346_183809" x="353.652" y="133.391" width="92.6958" height="92.6958" filterUnits="userSpaceOnUse" color-interpolation-filters="sRGB">
<feFlood flood-opacity="0" result="BackgroundImageFix"/>
<feColorMatrix in="SourceAlpha" type="matrix" values="0 0 0 0 0 0 0 0 0 0 0 0 0 0 0 0 0 0 127 0" result="hardAlpha"/>
<feOffset dy="1.73913"/>
<feGaussianBlur stdDeviation="1.73913"/>
<feComposite in2="hardAlpha" operator="out"/>
<feColorMatrix type="matrix" values="0 0 0 0 0.119819 0 0 0 0 0.185806 0 0 0 0 0.317778 0 0 0 0.17 0"/>
<feBlend mode="normal" in2="BackgroundImageFix" result="effect1_dropShadow_1346_183809"/>
<feBlend mode="normal" in="SourceGraphic" in2="effect1_dropShadow_1346_183809" result="shape"/>
</filter>
<filter id="filter11_d_1346_183809" x="461.652" y="133.391" width="92.6958" height="92.6958" filterUnits="userSpaceOnUse" color-interpolation-filters="sRGB">
<feFlood flood-opacity="0" result="BackgroundImageFix"/>
<feColorMatrix in="SourceAlpha" type="matrix" values="0 0 0 0 0 0 0 0 0 0 0 0 0 0 0 0 0 0 127 0" result="hardAlpha"/>
<feOffset dy="1.73913"/>
<feGaussianBlur stdDeviation="1.73913"/>
<feComposite in2="hardAlpha" operator="out"/>
<feColorMatrix type="matrix" values="0 0 0 0 0.119819 0 0 0 0 0.185806 0 0 0 0 0.317778 0 0 0 0.17 0"/>
<feBlend mode="normal" in2="BackgroundImageFix" result="effect1_dropShadow_1346_183809"/>
<feBlend mode="normal" in="SourceGraphic" in2="effect1_dropShadow_1346_183809" result="shape"/>
</filter>
<filter id="filter12_dd_1346_183809" x="138" y="248" width="135" height="92" filterUnits="userSpaceOnUse" color-interpolation-filters="sRGB">
<feFlood flood-opacity="0" result="BackgroundImageFix"/>
<feColorMatrix in="SourceAlpha" type="matrix" values="0 0 0 0 0 0 0 0 0 0 0 0 0 0 0 0 0 0 127 0" result="hardAlpha"/>
<feOffset dy="8"/>
<feGaussianBlur stdDeviation="6"/>
<feComposite in2="hardAlpha" operator="out"/>
<feColorMatrix type="matrix" values="0 0 0 0 0.113601 0 0 0 0 0.127069 0 0 0 0 0.147271 0 0 0 0.12 0"/>
<feBlend mode="normal" in2="BackgroundImageFix" result="effect1_dropShadow_1346_183809"/>
<feColorMatrix in="SourceAlpha" type="matrix" values="0 0 0 0 0 0 0 0 0 0 0 0 0 0 0 0 0 0 127 0" result="hardAlpha"/>
<feOffset dy="2"/>
<feGaussianBlur stdDeviation="1"/>
<feComposite in2="hardAlpha" operator="out"/>
<feColorMatrix type="matrix" values="0 0 0 0 0.119819 0 0 0 0 0.185806 0 0 0 0 0.317778 0 0 0 0.22 0"/>
<feBlend mode="normal" in2="effect1_dropShadow_1346_183809" result="effect2_dropShadow_1346_183809"/>
<feBlend mode="normal" in="SourceGraphic" in2="effect2_dropShadow_1346_183809" result="shape"/>
</filter>
<filter id="filter13_d_1346_183809" x="165" y="268" width="44" height="44" filterUnits="userSpaceOnUse" color-interpolation-filters="sRGB">
<feFlood flood-opacity="0" result="BackgroundImageFix"/>
<feColorMatrix in="SourceAlpha" type="matrix" values="0 0 0 0 0 0 0 0 0 0 0 0 0 0 0 0 0 0 127 0" result="hardAlpha"/>
<feOffset dy="4"/>
<feGaussianBlur stdDeviation="2"/>
<feComposite in2="hardAlpha" operator="out"/>
<feColorMatrix type="matrix" values="0 0 0 0 0 0 0 0 0 0 0 0 0 0 0 0 0 0 0.11 0"/>
<feBlend mode="normal" in2="BackgroundImageFix" result="effect1_dropShadow_1346_183809"/>
<feBlend mode="normal" in="SourceGraphic" in2="effect1_dropShadow_1346_183809" result="shape"/>
</filter>
<filter id="filter14_dd_1346_183809" x="311" y="248" width="135" height="92" filterUnits="userSpaceOnUse" color-interpolation-filters="sRGB">
<feFlood flood-opacity="0" result="BackgroundImageFix"/>
<feColorMatrix in="SourceAlpha" type="matrix" values="0 0 0 0 0 0 0 0 0 0 0 0 0 0 0 0 0 0 127 0" result="hardAlpha"/>
<feOffset dy="8"/>
<feGaussianBlur stdDeviation="6"/>
<feComposite in2="hardAlpha" operator="out"/>
<feColorMatrix type="matrix" values="0 0 0 0 0.113601 0 0 0 0 0.127069 0 0 0 0 0.147271 0 0 0 0.12 0"/>
<feBlend mode="normal" in2="BackgroundImageFix" result="effect1_dropShadow_1346_183809"/>
<feColorMatrix in="SourceAlpha" type="matrix" values="0 0 0 0 0 0 0 0 0 0 0 0 0 0 0 0 0 0 127 0" result="hardAlpha"/>
<feOffset dy="2"/>
<feGaussianBlur stdDeviation="1"/>
<feComposite in2="hardAlpha" operator="out"/>
<feColorMatrix type="matrix" values="0 0 0 0 0.119819 0 0 0 0 0.185806 0 0 0 0 0.317778 0 0 0 0.22 0"/>
<feBlend mode="normal" in2="effect1_dropShadow_1346_183809" result="effect2_dropShadow_1346_183809"/>
<feBlend mode="normal" in="SourceGraphic" in2="effect2_dropShadow_1346_183809" result="shape"/>
</filter>
<filter id="filter15_d_1346_183809" x="328" y="268" width="44" height="44" filterUnits="userSpaceOnUse" color-interpolation-filters="sRGB">
<feFlood flood-opacity="0" result="BackgroundImageFix"/>
<feColorMatrix in="SourceAlpha" type="matrix" values="0 0 0 0 0 0 0 0 0 0 0 0 0 0 0 0 0 0 127 0" result="hardAlpha"/>
<feOffset dy="4"/>
<feGaussianBlur stdDeviation="2"/>
<feComposite in2="hardAlpha" operator="out"/>
<feColorMatrix type="matrix" values="0 0 0 0 0 0 0 0 0 0 0 0 0 0 0 0 0 0 0.11 0"/>
<feBlend mode="normal" in2="BackgroundImageFix" result="effect1_dropShadow_1346_183809"/>
<feBlend mode="normal" in="SourceGraphic" in2="effect1_dropShadow_1346_183809" result="shape"/>
</filter>
<clipPath id="clip0_1346_183809">
<rect width="38" height="38" fill="white" transform="translate(165 375)"/>
</clipPath>
<clipPath id="clip1_1346_183809">
<rect width="41.2255" height="43.7537" fill="white" transform="translate(487.387 372.123)"/>
</clipPath>
<clipPath id="clip2_1346_183809">
<rect width="49" height="13" fill="white" transform="translate(159.289 172)"/>
</clipPath>
<clipPath id="clip3_1346_183809">
<rect width="24" height="24" fill="white" transform="translate(338 274)"/>
</clipPath>
<clipPath id="clip4_1346_183809">
<rect width="24" height="24" fill="white" transform="translate(338 274)"/>
</clipPath>
</defs>
</svg>
